<svg xmlns="http://www.w3.org/2000/svg" xmlns:xlink="http://www.w3.org/1999/xlink" width="500" zoomAndPan="magnify" viewBox="0 0 375 374.999991" height="500" preserveAspectRatio="xMidYMid meet" version="1.0"><defs><g/></defs><g fill="#020617" fill-opacity="1"><g transform="translate(42.919924, 296.820079)"><g><path d="M 99.15625 3.203125 C 81.46875 3.203125 66.15625 0.484375 53.21875 -4.953125 C 40.289062 -10.398438 30.253906 -18.445312 23.109375 -29.09375 C 15.960938 -39.738281 12.242188 -52.789062 11.953125 -68.25 L 55.265625 -68.25 C 55.648438 -60.851562 57.738281 -54.601562 61.53125 -49.5 C 65.320312 -44.394531 70.425781 -40.554688 76.84375 -37.984375 C 83.257812 -35.410156 90.597656 -34.125 98.859375 -34.125 C 106.835938 -34.125 113.816406 -35.289062 119.796875 -37.625 C 125.773438 -39.957031 130.414062 -43.210938 133.71875 -47.390625 C 137.019531 -51.566406 138.671875 -56.378906 138.671875 -61.828125 C 138.671875 -66.785156 137.238281 -70.960938 134.375 -74.359375 C 131.507812 -77.765625 127.28125 -80.679688 121.6875 -83.109375 C 116.09375 -85.546875 109.164062 -87.6875 100.90625 -89.53125 L 77.28125 -95.359375 C 58.226562 -99.835938 43.476562 -106.910156 33.03125 -116.578125 C 22.582031 -126.253906 17.359375 -138.96875 17.359375 -154.71875 C 17.359375 -167.84375 20.878906 -179.3125 27.921875 -189.125 C 34.972656 -198.945312 44.644531 -206.601562 56.9375 -212.09375 C 69.238281 -217.582031 83.359375 -220.328125 99.296875 -220.328125 C 115.441406 -220.328125 129.515625 -217.554688 141.515625 -212.015625 C 153.523438 -206.484375 162.882812 -198.757812 169.59375 -188.84375 C 176.300781 -178.925781 179.800781 -167.40625 180.09375 -154.28125 L 137.21875 -154.28125 C 136.4375 -163.320312 132.664062 -170.367188 125.90625 -175.421875 C 119.15625 -180.472656 110.191406 -183 99.015625 -183 C 91.523438 -183 85.054688 -181.90625 79.609375 -179.71875 C 74.171875 -177.53125 70.015625 -174.515625 67.140625 -170.671875 C 64.273438 -166.835938 62.84375 -162.441406 62.84375 -157.484375 C 62.84375 -152.328125 64.375 -148.023438 67.4375 -144.578125 C 70.5 -141.128906 74.726562 -138.257812 80.125 -135.96875 C 85.519531 -133.6875 91.570312 -131.769531 98.28125 -130.21875 L 118.109375 -125.40625 C 127.734375 -123.269531 136.554688 -120.425781 144.578125 -116.875 C 152.597656 -113.320312 159.523438 -109.019531 165.359375 -103.96875 C 171.191406 -98.914062 175.660156 -92.9375 178.765625 -86.03125 C 181.878906 -79.132812 183.4375 -71.257812 183.4375 -62.40625 C 183.4375 -49.09375 180.082031 -37.5 173.375 -27.625 C 166.664062 -17.757812 157.039062 -10.15625 144.5 -4.8125 C 131.96875 0.53125 116.851562 3.203125 99.15625 3.203125 Z M 99.15625 3.203125 "/></g></g></g><g fill="#2563eb" fill-opacity="1"><g transform="translate(238.318349, 296.820079)"><g><path d="M 46.953125 2.765625 C 39.859375 2.765625 33.878906 0.359375 29.015625 -4.453125 C 24.160156 -9.265625 21.734375 -15.21875 21.734375 -22.3125 C 21.734375 -29.3125 24.160156 -35.21875 29.015625 -40.03125 C 33.878906 -44.84375 39.859375 -47.25 46.953125 -47.25 C 53.953125 -47.25 59.878906 -44.84375 64.734375 -40.03125 C 69.597656 -35.21875 72.03125 -29.3125 72.03125 -22.3125 C 72.03125 -15.21875 69.597656 -9.265625 64.734375 -4.453125 C 59.878906 0.359375 53.953125 2.765625 46.953125 2.765625 Z M 46.953125 2.765625 "/></g></g></g></svg>